<svg xmlns="http://www.w3.org/2000/svg" xmlns:xlink="http://www.w3.org/1999/xlink" version="1.1" x="0px" y="0px" viewBox="0 0 512 640" enable-background="new 0 0 512 512" xml:space="preserve"><g><path d="M459.2,2H154.4c-28,0-50.8,22.8-50.8,50.8V129c0,14,11.4,25.4,25.4,25.4c14,0,25.4-11.4,25.4-25.4V52.8h304.8v406.4H154.4   V383c0-14-11.4-25.4-25.4-25.4c-14,0-25.4,11.4-25.4,25.4v76.2c0,28,22.8,50.8,50.8,50.8h304.8c28,0,50.8-22.8,50.8-50.8V52.8   C510,24.8,487.2,2,459.2,2z"/><path d="M230.6,347.7c0,9,10.9,13.6,17.3,7.2l81.3-91.7c4-4,4-10.4,0-14.4l-81.3-91.5c-6.4-6.4-17.3-1.9-17.3,7.2v40.7H12.2   c-5.6,0-10.2,4.6-10.2,10.2v81.3c0,5.6,4.5,10.2,10.2,10.2h218.4V347.7z"/></g><text x="0" y="527" fill="#000000" font-size="5px" font-weight="bold" font-family="'Helvetica Neue', Helvetica, Arial-Unicode, Arial, Sans-serif">Created by Icon Fair</text><text x="0" y="532" fill="#000000" font-size="5px" font-weight="bold" font-family="'Helvetica Neue', Helvetica, Arial-Unicode, Arial, Sans-serif">from the Noun Project</text></svg>